<svg xmlns="http://www.w3.org/2000/svg" width="148.872" height="167.929" viewBox="0 0 148.872 167.929">
  <g id="Group_18" data-name="Group 18" transform="matrix(0.259, -0.966, 0.966, 0.259, -30.251, 461.457)">
    <path id="Path_8" data-name="Path 8" d="M27,0C41.912,0,95.529,51.729,95.529,65.229c0,8.005-14.2,14.163-30.6,13.136C54.2,77.694,43.5,89.5,33.767,79.766S26.278,61.792,13.7,49.809C-4.578,42.32-18.335,43.147-23.152,37.527-33.233,25.764-19.122,7.784-19.122,0-19.122-14.912,12.088,0,27,0Z" transform="matrix(0.978, 0.208, -0.208, 0.978, 355.756, -45.305)" fill="#fff" opacity="0.97"/>
    <path id="Path_7" data-name="Path 7" d="M27,0C41.912,0,95.529,51.729,95.529,65.229c0,8.005-14.2,14.163-30.6,13.136C54.2,77.694,43.5,89.5,33.767,79.766S26.278,61.792,13.7,49.809C-4.578,42.32-18.335,43.147-23.152,37.527-33.233,25.764-19.122,7.784-19.122,0-19.122-14.912,12.088,0,27,0Z" transform="translate(374 -24)" fill="#d2ffe4" opacity="0.7"/>
  </g>
</svg>
