<svg xmlns="http://www.w3.org/2000/svg" width="20.39" height="20.39" viewBox="0 0 20.39 20.39">
  <g id="settings" transform="translate(0 0)">
    <path id="Path_11" data-name="Path 11" d="M10.835,20.39H9.555a1.879,1.879,0,0,1-1.877-1.877V18.08A8.232,8.232,0,0,1,6.4,17.55l-.307.307a1.877,1.877,0,0,1-2.655,0l-.9-.9a1.877,1.877,0,0,1,0-2.655l.307-.307a8.232,8.232,0,0,1-.531-1.278H1.877A1.879,1.879,0,0,1,0,10.835V9.555A1.879,1.879,0,0,1,1.877,7.678H2.31A8.234,8.234,0,0,1,2.841,6.4l-.307-.307a1.877,1.877,0,0,1,0-2.655l.9-.9a1.877,1.877,0,0,1,2.655,0l.307.307A8.239,8.239,0,0,1,7.678,2.31V1.877A1.879,1.879,0,0,1,9.555,0h1.28a1.879,1.879,0,0,1,1.877,1.877V2.31a8.232,8.232,0,0,1,1.278.531l.307-.307a1.877,1.877,0,0,1,2.655,0l.9.9a1.877,1.877,0,0,1,0,2.655L17.55,6.4a8.232,8.232,0,0,1,.531,1.278h.433A1.879,1.879,0,0,1,20.39,9.555v1.28a1.879,1.879,0,0,1-1.877,1.877H18.08a8.234,8.234,0,0,1-.531,1.278l.307.307a1.877,1.877,0,0,1,0,2.655l-.9.9a1.877,1.877,0,0,1-2.655,0l-.307-.307a8.239,8.239,0,0,1-1.278.531v.433A1.879,1.879,0,0,1,10.835,20.39ZM6.6,16.3a7.042,7.042,0,0,0,1.825.758.6.6,0,0,1,.448.578v.882a.683.683,0,0,0,.682.682h1.28a.683.683,0,0,0,.682-.682v-.882a.6.6,0,0,1,.448-.578,7.042,7.042,0,0,0,1.825-.758.6.6,0,0,1,.727.092l.625.625a.682.682,0,0,0,.965,0l.905-.905a.682.682,0,0,0,0-.965l-.625-.625a.6.6,0,0,1-.092-.726,7.04,7.04,0,0,0,.758-1.825.6.6,0,0,1,.578-.448h.882a.683.683,0,0,0,.682-.682V9.555a.683.683,0,0,0-.682-.682h-.882a.6.6,0,0,1-.578-.448A7.042,7.042,0,0,0,16.3,6.6a.6.6,0,0,1,.092-.726l.625-.625a.682.682,0,0,0,0-.965l-.905-.905a.682.682,0,0,0-.965,0L14.517,4a.6.6,0,0,1-.727.092,7.041,7.041,0,0,0-1.825-.758.6.6,0,0,1-.448-.578V1.877a.683.683,0,0,0-.682-.682H9.555a.683.683,0,0,0-.682.682v.882a.6.6,0,0,1-.448.578A7.041,7.041,0,0,0,6.6,4.1.6.6,0,0,1,5.873,4l-.625-.625a.682.682,0,0,0-.965,0l-.905.905a.682.682,0,0,0,0,.965L4,5.873A.6.6,0,0,1,4.1,6.6a7.04,7.04,0,0,0-.758,1.825.6.6,0,0,1-.578.448H1.877a.683.683,0,0,0-.682.682v1.28a.683.683,0,0,0,.682.682h.882a.6.6,0,0,1,.578.448A7.042,7.042,0,0,0,4.1,13.791.6.6,0,0,1,4,14.517l-.625.625a.682.682,0,0,0,0,.965l.905.905a.682.682,0,0,0,.965,0l.625-.625A.6.6,0,0,1,6.6,16.3Z" fill="#fff"/>
    <path id="Path_12" data-name="Path 12" d="M149.036,153.473a4.436,4.436,0,1,1,4.436-4.436A4.441,4.441,0,0,1,149.036,153.473Zm0-7.678a3.242,3.242,0,1,0,3.242,3.242A3.245,3.245,0,0,0,149.036,145.795Z" transform="translate(-138.841 -138.841)" fill="#fff"/>
  </g>
</svg>
